Coordinates
version=1
nRows=17
nColumns=24
inDegrees=yes

Units are S.I. units (second, meters, Newtons, ...)
Angles are in degrees.

endheader
time	pelvis_tilt	pelvis_list	pelvis_rotation	pelvis_tx	pelvis_ty	pelvis_tz	hip_flexion_r	hip_adduction_r	hip_rotation_r	knee_angle_r	ankle_angle_r	subtalar_angle_r	mtp_angle_r	hip_flexion_l	hip_adduction_l	hip_rotation_l	knee_angle_l	ankle_angle_l	subtalar_angle_l	mtp_angle_l	lumbar_extension	lumbar_bending	lumbar_rotation
      0.90400000	     -9.31805155	     -3.17028423	      5.91751488	     -0.39400301	      0.90145867	      0.29394588	     20.96217353	      8.17602694	     -3.35354218	    -22.14656498	      8.93991569	     -3.04241721	      6.59541441	     20.70228861	     -6.89904429	     -4.12462711	    -61.07254092	      6.15470588	     -3.79428196	      6.28884275	      6.76299714	      4.43915249	     -3.03405095
      0.90816667	     -9.22289253	     -3.01979613	      5.69045353	     -0.38908251	      0.90255678	      0.29436733	     20.25246244	      8.17095307	     -3.04081651	    -21.66070125	      8.97416182	     -3.04454096	      6.58942153	     21.18525678	     -6.75541610	     -4.43601600	    -60.54065346	      6.50812919	     -3.88779508	      6.12707013	      6.58382425	      4.31141176	     -2.49976017
      0.91233333	     -9.17547117	     -2.86140123	      5.44470466	     -0.38422182	      0.90352242	      0.29479872	     19.61624417	      8.14575463	     -2.72787268	    -21.21330911	      9.00982094	     -2.98771370	      6.58663009	     21.71213702	     -6.60040394	     -4.75950608	    -59.97211837	      6.85251432	     -4.00737612	      5.99564677	      6.45915894	      4.17665331	     -2.17403967
      0.91650000	     -9.10573111	     -2.70229609	      5.19286054	     -0.37933263	      0.90449511	      0.29523768	     18.94743418	      8.11769725	     -2.42314628	    -20.74772733	      9.04845612	     -2.94557901	      6.58450367	     22.19346953	     -6.45682364	     -5.10508841	    -59.34177223	      7.14136315	     -4.12358738	      5.85473193	      6.33806533	      4.04735031	     -1.78823667
      0.92066667	     -9.03501602	     -2.54506064	      4.92281568	     -0.37446320	      0.90541464	      0.29571064	     18.28779653	      8.08921140	     -2.11502436	    -20.29797457	      9.07807770	     -2.89823969	      6.58401600	     22.66158009	     -6.32998804	     -5.47460246	    -58.67241970	      7.39786840	     -4.24510725	      5.70473049	      6.20930886	      3.91624652	     -1.39436774
      0.92483333	     -8.96939309	     -2.38426011	      4.64092212	     -0.36961866	      0.90628251	      0.29618588	     17.64128580	      8.05105604	     -1.79624014	    -19.85931505	      9.11071241	     -2.83817717	      6.58551073	     23.12009569	     -6.20257149	     -5.85272663	    -57.95372038	      7.61571918	     -4.37538662	      5.57562214	      6.08066485	      3.79910891	     -1.04693466
      0.92900000	     -8.91371381	     -2.23746176	      4.35151288	     -0.36480183	      0.90707080	      0.29669347	     17.00896033	      8.02342528	     -1.48323122	    -19.41333438	      9.12226391	     -2.77820885	      6.64685725	     23.58975754	     -6.10383072	     -6.24932876	    -57.21944050	      7.85340041	     -4.46054869	      2.93737264	      5.97428683	      3.66812343	     -0.55928527
      0.93316667	     -8.82425157	     -2.08018240	      4.06065814	     -0.35999209	      0.90787312	      0.29719897	     16.34113341	      7.98045177	     -1.17074076	    -18.97188071	      9.17630949	     -2.70593721	      6.65037108	     24.00161970	     -5.99763397	     -6.64858942	    -56.42111592	      7.98820895	     -4.61262952	      2.92466172	      5.80652087	      3.52663703	     -0.22346779
      0.93733333	     -8.74358172	     -1.92389235	      3.74915395	     -0.35519794	      0.90861338	      0.29771707	     15.69377445	      7.93377670	     -0.84469072	    -18.54830334	      9.21815203	     -2.63928897	      6.65619464	     24.40535029	     -5.90169206	     -7.06867987	    -55.57721361	      8.08867798	     -4.77007804	      2.90305722	      5.65904148	      3.41163996	      0.17955016
      0.94150000	     -8.67216493	     -1.78043293	      3.44191305	     -0.35042910	      0.90927202	      0.29824109	     15.05924381	      7.89241107	     -0.53054863	    -18.12119876	      9.26225735	     -2.55742052	      6.66603565	     24.81856041	     -5.82217457	     -7.48165465	    -54.71142132	      8.16497152	     -4.93107501	      2.86979598	      5.51507408	      3.28271374	      0.61352153
      0.94566667	     -8.60159361	     -1.63047583	      3.11328169	     -0.34567132	      0.90988439	      0.29876740	     14.44284587	      7.83684730	     -0.21816161	    -17.72990367	      9.30749215	     -2.45563835	      6.67539811	     25.20873153	     -5.74681550	     -7.92561026	    -53.79276478	      8.20523024	     -5.08643539	      2.83968464	      5.38222918	      3.18463718	      0.92852925
      0.94983333	     -8.52112343	     -1.50085224	      2.81059399	     -0.34092988	      0.91045241	      0.29927282	     13.80147976	      7.79351165	      0.08194543	    -17.29904671	      9.37391657	     -2.36280509	      6.69232461	     25.59237559	     -5.68169320	     -8.32231229	    -52.85487673	      8.21675102	     -5.27159091	      2.78984157	      5.22550553	      3.05956489	      1.43047203
      0.95400000	     -8.45667979	     -1.36289709	      2.47478903	     -0.33621047	      0.91094147	      0.29979457	     13.20608501	      7.73458650	      0.38071112	    -16.92699416	      9.42907786	     -2.24264128	      6.70650673	     25.96815523	     -5.62603285	     -8.76955826	    -51.86825828	      8.19932130	     -5.43004572	      2.74947544	      5.09913395	      2.97180867	      1.75207480
      0.95816667	     -8.38116974	     -1.24595183	      2.16758180	     -0.33148927	      0.91139068	      0.30027723	     12.57945863	      7.68724865	      0.66262820	    -16.50810298	      9.51135513	     -2.12094911	      6.73033283	     26.33351295	     -5.57469245	     -9.16121114	    -50.86272257	      8.16200529	     -5.62109225	      2.68698262	      4.94956528	      2.86016247	      2.25363323
      0.96233333	     -8.31734263	     -1.12994680	      1.84457959	     -0.32678775	      0.91176469	      0.30076015	     11.98466070	      7.63275264	      0.93597705	    -16.12706600	      9.59106137	     -1.98073088	      6.75683823	     26.69422930	     -5.53304492	     -9.57173817	    -49.81834395	      8.09939923	     -5.78857377	      2.62177109	      4.82016496	      2.77486090	      2.66308200
      0.96650000	     -8.25550218	     -1.02308050	      1.52556931	     -0.32209279	      0.91208044	      0.30121939	     11.39513146	      7.57812944	      1.19322127	    -15.74971894	      9.67792265	     -1.82414111	      6.78571088	     27.04727374	     -5.49863168	     -9.97297331	    -48.74538404	      8.01503712	     -5.95364352	      2.55413288	      4.69229357	      2.69648770	      3.06188566
      0.97066667	     -8.20760301	     -0.92260015	      1.19156243	     -0.31741783	      0.91231774	      0.30167991	     10.83450967	      7.52315469	      1.44826555	    -15.39616183	      9.74335855	     -1.65652641	      6.80801946	     27.40203577	     -5.48125819	    -10.39257121	    -47.64418028	      7.90100531	     -6.08794069	      2.50458744	      4.57944230	      2.64260696	      3.35773152
